# xmcd CD database file
#
# Track frame offsets:
#	150
#	14740
#	27242
#	47662
#	61160
#	78672
#	90022
#	103245
#	121505
#	133407
#	144090
#	160875
#
# Disc length: 2345 seconds
#
# Revision: 0
# Processed by: cddbd v1.4PL0 Copyright (c) Steve Scherf et al.
# Submitted via: CDex 1.50beta10
#
DISCID=9409270c
DTITLE=Nara Leão - Um Cantinho, Um Violão
DYEAR=1985
DGENRE=Jazz
TTITLE0=O Negócio É amar
TTITLE1=Tristeza de Nós Dois
TTITLE2=Sabor a Mi
TTITLE3=Da Cor do Pecado
TTITLE4=Transparências
TTITLE5=Blusão
TTITLE6=Resignação
TTITLE7=Vestígios
TTITLE8=There Will Never Be Another You
TTITLE9=Comigo É Assim
TTITLE10=Mentiras
TTITLE11=Inclinações Musicais
EXTD=YEAR: 1985
EXTT0=
EXTT1=
EXTT2=
EXTT3=
EXTT4=
EXTT5=
EXTT6=
EXTT7=
EXTT8=
EXTT9=
EXTT10=
EXTT11=
PLAYORDER=
